<?xml version="1.0" standalone="no"?>
<!DOCTYPE svg PUBLIC "-//W3C//DTD SVG 20010904//EN"
 "http://www.w3.org/TR/2001/REC-SVG-20010904/DTD/svg10.dtd">
<svg version="1.0" xmlns="http://www.w3.org/2000/svg"
 width="400.000000pt" height="400.000000pt" viewBox="0 0 517.000000 532.000000"
 preserveAspectRatio="xMidYMid meet">
<metadata>
Created by potrace 1.16, written by Peter Selinger 2001-2019
</metadata>
<g transform="translate(0.000000,532.000000) scale(0.100000,-0.100000)"
fill="#f2eee2" stroke="none">
<path d="M5035 5288 c-44 -15 -228 -94 -323 -139 -46 -21 -86 -39 -88 -39 -3
0 -48 -20 -101 -45 -52 -25 -97 -45 -99 -45 -2 0 -36 -15 -76 -34 -40 -18
-104 -48 -143 -66 -38 -18 -106 -49 -150 -70 -44 -21 -111 -52 -150 -70 -38
-18 -106 -49 -150 -70 -44 -21 -111 -52 -150 -70 -38 -18 -106 -49 -150 -70
-44 -21 -111 -52 -150 -70 -38 -18 -106 -49 -150 -70 -44 -21 -111 -52 -150
-70 -38 -18 -106 -49 -150 -70 -44 -21 -111 -52 -150 -70 -38 -18 -106 -49
-150 -70 -44 -21 -111 -52 -150 -70 -38 -18 -106 -49 -150 -70 -44 -21 -111
-52 -150 -70 -38 -18 -113 -53 -165 -77 -99 -47 -155 -73 -305 -143 -49 -23
-117 -55 -150 -70 -109 -51 -239 -112 -305 -142 -36 -17 -96 -45 -135 -63
-225 -106 -267 -125 -274 -125 -5 0 -14 -7 -21 -15 -10 -12 -10 -19 1 -33 8
-9 19 -26 25 -37 23 -43 73 -132 98 -175 33 -57 32 -66 -1 -74 -16 -4 -50 -15
-78 -26 -27 -10 -84 -31 -125 -46 -322 -115 -383 -141 -388 -165 -2 -9 20 -53
48 -97 27 -45 50 -84 50 -86 0 -2 23 -41 50 -85 28 -44 50 -83 50 -86 0 -3 22
-41 50 -85 27 -44 50 -82 50 -85 0 -2 29 -52 65 -110 36 -57 65 -107 65 -109
0 -2 23 -41 50 -85 28 -44 50 -83 50 -85 0 -2 23 -41 50 -85 28 -44 50 -83 50
-86 0 -3 15 -29 33 -58 19 -29 45 -72 59 -97 14 -25 35 -62 47 -83 11 -20 29
-52 39 -70 11 -17 34 -56 52 -86 32 -51 33 -56 21 -95 -52 -172 -49 -318 10
-451 69 -153 219 -280 387 -326 125 -35 285 -18 410 42 49 24 130 86 173 133
63 67 139 230 139 296 l0 28 133 -40 c142 -42 281 -75 362 -84 28 -4 52 -8 55
-9 3 -2 30 -6 60 -10 30 -3 71 -8 90 -10 137 -19 531 -8 680 19 19 3 46 8 60
10 30 5 53 10 145 31 394 93 844 317 1178 588 134 108 127 99 127 184 0 72 -2
78 -50 160 -27 47 -50 87 -50 90 0 3 -8 17 -19 31 -19 28 -63 109 -137 250
-24 46 -60 125 -80 175 -20 51 -51 125 -70 165 -19 41 -34 76 -34 79 0 13 -75
152 -112 206 -110 162 -248 216 -400 158 -24 -9 -27 -8 -26 7 2 9 -1 37 -6 62
-12 61 -89 135 -235 224 -117 71 -165 114 -226 200 -50 70 -144 215 -164 251
-61 113 -158 215 -241 254 -112 52 -233 23 -310 -75 -84 -106 -79 -204 29
-567 37 -127 50 -227 46 -372 -3 -111 -6 -143 -24 -250 -11 -67 5 -184 28
-209 28 -29 27 -33 -11 -49 -39 -17 -83 -59 -106 -102 -24 -44 -25 -165 -3
-245 23 -81 41 -123 161 -385 10 -22 34 -74 53 -115 19 -41 56 -120 82 -175
26 -55 72 -152 102 -215 30 -63 76 -160 102 -215 l48 -100 -41 -7 c-45 -7
-476 -3 -516 5 -14 3 -52 9 -85 13 -33 4 -62 8 -65 9 -20 5 -82 16 -115 21
-81 11 -379 97 -397 113 -3 3 -9 26 -13 51 -14 109 -47 194 -104 275 -96 133
-221 211 -388 240 -47 8 -87 15 -89 15 -2 0 -46 84 -97 188 -239 479 -662
1304 -687 1337 -4 6 -31 54 -59 108 l-52 97 93 44 c51 24 125 58 163 76 39 18
106 49 150 70 44 21 112 52 150 70 39 18 106 49 150 70 44 21 112 52 150 70
39 18 106 49 150 70 44 21 112 52 150 70 91 42 216 101 324 152 97 45 166 77
296 138 50 23 117 55 150 70 33 15 101 47 150 70 50 23 117 55 150 70 33 15
101 47 150 70 50 23 117 55 150 70 109 51 239 112 305 142 36 17 97 45 135 63
79 37 206 96 310 145 39 18 104 48 145 67 138 64 175 81 225 103 70 31 136 61
238 109 49 22 91 41 93 41 2 0 27 11 56 24 103 46 200 86 212 86 7 0 31 -55
55 -122 61 -175 60 -173 60 -94 1 55 -6 89 -36 172 -40 110 -42 111 -98 92z
m-1723 -1429 c53 -27 176 -151 203 -204 11 -22 27 -51 36 -65 9 -14 51 -77 93
-140 101 -154 154 -212 237 -261 87 -50 186 -118 220 -150 49 -46 75 -129 51
-166 -13 -20 -257 -180 -355 -231 -90 -48 -177 -87 -309 -140 -45 -19 -230
-79 -268 -88 -33 -7 -42 -8 -74 -5 -31 2 -57 66 -57 138 0 37 3 80 6 96 3 15
7 39 10 55 3 15 8 77 12 138 9 162 -10 290 -72 504 -9 30 -20 69 -24 86 -5 18
-11 36 -14 41 -11 18 -21 101 -21 173 0 56 6 85 21 115 61 117 192 161 305
104z m-2358 -952 c37 -65 139 -262 336 -652 111 -220 238 -469 282 -553 44
-84 79 -155 77 -157 -2 -2 -18 -5 -36 -8 -64 -10 -163 -49 -224 -88 -69 -45
-67 -43 -132 -116 -25 -29 -48 -49 -50 -45 -3 4 -14 23 -25 42 -63 112 -205
355 -240 413 -23 37 -42 69 -42 71 0 3 -22 41 -50 85 -27 44 -50 83 -50 85 0
2 -22 41 -50 85 -27 44 -50 83 -50 86 0 2 -24 44 -53 92 -106 174 -177 294
-177 297 0 3 -23 41 -51 86 -28 45 -48 87 -46 93 5 13 26 21 259 107 29 11
107 39 173 64 66 25 122 45 125 45 3 1 13 -14 24 -32z m3506 -82 c35 -20 71
-54 98 -91 55 -74 164 -296 228 -464 33 -88 170 -358 204 -405 4 -5 19 -30 32
-55 43 -77 64 -113 96 -166 18 -28 32 -56 32 -61 0 -11 -51 -59 -125 -118 -27
-22 -56 -46 -64 -53 -11 -11 -18 -6 -37 28 -13 23 -24 43 -24 45 0 2 -19 36
-43 77 -24 40 -55 93 -69 118 -23 42 -35 62 -88 155 -11 19 -29 51 -40 70
-162 284 -272 459 -318 507 -20 21 -31 26 -51 21 -23 -6 -304 -125 -406 -173
-22 -10 -65 -29 -95 -43 -30 -14 -89 -40 -130 -59 -41 -19 -123 -56 -182 -83
-63 -28 -108 -54 -110 -64 -4 -20 16 -100 42 -166 95 -244 132 -333 229 -560
135 -313 138 -320 162 -368 24 -47 24 -57 -1 -57 -10 0 -43 -6 -72 -14 -29 -7
-77 -17 -105 -21 l-53 -7 -66 139 c-36 76 -83 174 -104 218 -21 44 -60 127
-88 185 -52 111 -95 202 -132 285 -13 28 -41 88 -62 135 -85 181 -114 269
-117 362 -2 44 3 76 13 96 22 43 80 90 128 103 351 94 628 213 873 374 171
112 175 115 250 136 77 23 125 16 195 -26z m-66 -539 c66 -101 175 -283 238
-396 14 -25 35 -62 47 -82 11 -21 30 -54 41 -73 11 -19 29 -51 40 -70 11 -19
29 -52 41 -72 12 -21 25 -42 29 -48 4 -5 26 -44 48 -86 l41 -76 -47 -35 c-157
-116 -320 -209 -567 -323 -65 -30 -227 -87 -335 -118 -83 -24 -157 -41 -133
-31 13 6 6 25 -49 144 -16 36 -41 92 -54 125 -14 33 -29 69 -34 80 -9 21 -23
54 -60 140 -12 28 -25 59 -30 70 -33 74 -50 115 -50 119 0 3 -13 34 -29 68
-16 35 -36 83 -44 108 -9 25 -25 70 -37 100 -29 75 -50 142 -50 161 0 8 18 23
43 34 59 26 156 70 266 121 51 24 95 44 97 44 2 0 39 16 81 36 43 19 92 41
108 49 17 7 46 20 65 28 41 18 126 55 155 66 11 5 36 15 55 23 19 9 39 13 43
11 5 -3 41 -55 81 -117z m-2507 -804 c122 -47 235 -141 298 -247 115 -196 81
-478 -77 -647 -67 -71 -126 -110 -220 -145 -64 -25 -87 -28 -183 -27 -160 0
-268 42 -373 142 -122 117 -181 261 -176 433 4 137 56 251 164 359 70 71 178
133 260 150 74 15 247 5 307 -18z"/>
<path d="M1597 1410 c-293 -73 -438 -390 -302 -660 54 -106 138 -180 253 -223
82 -31 244 -30 322 2 155 64 252 180 286 344 47 226 -92 464 -308 526 -103 30
-163 32 -251 11z m277 -40 c116 -49 210 -145 252 -260 21 -59 27 -193 10 -256
-57 -214 -243 -347 -466 -331 -123 8 -205 49 -296 145 -80 85 -115 186 -110
317 8 167 95 299 247 374 117 57 242 61 363 11z"/>
<path d="M4750 4719 c-63 -34 -162 -86 -220 -116 -58 -31 -150 -80 -205 -108
-55 -29 -125 -66 -155 -82 -30 -17 -82 -45 -115 -63 -238 -128 -256 -140 -312
-197 -94 -96 -135 -202 -132 -343 4 -226 108 -388 286 -446 78 -25 216 -24
295 3 245 84 445 356 557 758 33 122 83 335 96 416 2 13 8 56 15 94 14 88 18
145 11 145 -3 0 -58 -28 -121 -61z m75 -51 c-4 -24 -9 -52 -11 -63 -2 -10 -6
-37 -9 -60 -3 -22 -10 -59 -15 -82 -6 -24 -15 -64 -21 -90 -78 -347 -168 -578
-283 -728 -129 -168 -265 -251 -422 -259 -125 -7 -217 26 -294 104 -129 130
-159 365 -69 541 28 55 120 146 179 178 25 13 63 34 85 46 110 61 290 157 390
210 44 23 139 73 210 111 231 122 250 132 258 133 5 1 6 -18 2 -41z"/>
<path d="M4718 4558 c-84 -79 -398 -284 -488 -318 -19 -7 -39 -17 -45 -21 -5
-4 -46 -21 -90 -39 -105 -41 -168 -81 -234 -148 -71 -72 -94 -127 -98 -224 -4
-137 65 -261 178 -319 37 -18 55 -21 128 -17 111 6 182 39 266 124 71 71 139
200 228 429 20 50 152 456 166 508 10 40 9 43 -11 25z m-38 -87 c0 -10 -110
-338 -136 -403 -107 -281 -153 -367 -239 -454 -54 -54 -83 -76 -128 -92 -104
-39 -211 -26 -277 34 -75 68 -117 172 -108 272 12 126 93 215 275 303 66 33
124 59 128 59 33 0 358 194 435 260 36 31 50 36 50 21z"/>
<path d="M4050 3887 c-13 -7 -35 -28 -47 -46 -64 -95 12 -223 123 -207 24 3
53 11 64 18 26 16 60 86 60 122 0 38 -35 93 -70 111 -35 18 -96 19 -130 2z
m123 -38 c39 -30 54 -87 33 -127 -24 -47 -69 -67 -117 -53 -50 15 -79 53 -79
103 0 82 98 129 163 77z"/>
<path d="M2375 3519 c-92 -22 -174 -50 -261 -89 -51 -23 -289 -119 -559 -225
-168 -66 -246 -95 -258 -95 -7 0 -18 -5 -25 -12 -32 -32 -13 -46 190 -146 185
-91 233 -114 338 -159 19 -9 49 -21 65 -28 57 -25 200 -74 262 -90 212 -53
399 -56 543 -8 110 37 215 125 265 225 32 64 35 79 35 154 0 183 -118 397
-255 464 -69 33 -224 37 -340 9z m326 -48 c113 -51 229 -265 229 -421 0 -93
-22 -147 -86 -218 -101 -112 -196 -150 -391 -158 -161 -6 -386 45 -578 131
-16 7 -73 32 -125 54 -148 64 -433 208 -424 214 5 3 47 19 94 37 47 17 113 43
147 56 35 13 93 36 130 50 38 15 82 33 100 40 17 8 71 30 121 49 49 19 123 50
165 69 97 44 201 80 302 106 105 26 248 22 316 -9z"/>
<path d="M2454 3390 c-73 -11 -126 -32 -309 -126 -190 -97 -335 -150 -600
-219 -27 -7 -44 -13 -37 -14 7 -1 31 -10 55 -21 23 -11 67 -28 97 -39 49 -17
88 -32 235 -87 71 -27 227 -75 345 -106 152 -40 296 -44 383 -10 123 47 190
112 222 217 35 115 -33 275 -151 356 -36 24 -159 63 -184 58 -3 -1 -28 -5 -56
-9z m170 -47 c69 -25 137 -96 170 -178 46 -115 29 -210 -51 -287 -117 -111
-283 -131 -533 -61 -115 32 -480 158 -570 196 l-34 15 44 13 c172 48 407 137
510 194 63 34 132 71 154 81 97 44 228 56 310 27z"/>
<path d="M2465 3203 c-55 -30 -79 -86 -65 -149 34 -148 260 -128 264 24 2 109
-104 176 -199 125z m135 -43 c36 -39 43 -70 25 -113 -36 -87 -166 -81 -195 8
-9 28 -8 41 6 70 22 47 49 65 97 65 30 0 45 -7 67 -30z"/>
</g>
</svg>
